<svg width="90" height="90" viewBox="0 0 90 90" fill="none" xmlns="http://www.w3.org/2000/svg">
<path d="M48.5957 28.126C54.3549 28.126 58.3615 29.8515 62.4238 34.0469C65.5463 37.1242 67.4774 41.3722 67.4775 46.0615C67.4775 50.751 65.5462 54.9997 62.4238 58.0771C59.3112 61.1447 55.0175 63.0419 50.2803 63.042C45.5428 63.042 41.2484 61.1449 38.1357 58.0771C35.0131 54.9997 33.082 50.751 33.082 46.0615C33.0821 44.5714 33.2817 43.0932 33.6699 41.6641C34.053 40.254 34.6316 38.8768 35.3965 37.5693C35.9856 36.5646 37.2785 36.2273 38.2832 36.8164C39.2877 37.4055 39.6241 38.6975 39.0352 39.7021C38.4788 40.6528 38.049 41.686 37.7539 42.7725C37.464 43.8394 37.3155 44.9451 37.3154 46.0615C37.3154 49.581 38.761 52.7645 41.0967 55.0664C43.4421 57.378 46.6887 58.8086 50.2803 58.8086C53.8718 58.8085 57.1185 57.378 59.4639 55.0664C61.7994 52.7645 63.2441 49.5809 63.2441 46.0615C63.244 42.5422 61.7995 39.3585 59.4639 37.0566C53.6092 31.3854 48.0212 32.3838 42.6846 32.3838H9.35059C8.19072 32.3838 7.2334 33.3411 7.2334 34.501V47.1162H27.3477C28.5164 47.1164 29.4637 48.0637 29.4639 49.2324C29.4639 50.4013 28.5165 51.3494 27.3477 51.3496H7.2334V63.9648C7.23348 65.1246 8.19077 66.082 9.35059 66.082H80.6494C81.8092 66.082 82.7665 65.1246 82.7666 63.9648V61.8525C82.7668 60.6838 83.7141 59.7365 84.8828 59.7363C86.0517 59.7363 86.9998 60.6837 87 61.8525V63.9648C86.9998 67.4613 84.1467 70.3154 80.6494 70.3154H9.35059C5.8536 70.3154 3.00022 67.4618 3 63.9648V34.501C3 31.0039 5.85346 28.1504 9.35059 28.1504C22.4304 28.1504 35.5176 28.126 48.5957 28.126ZM80.6494 28.1504C84.1465 28.1504 87 31.0039 87 34.501V55.5439C87 56.713 86.0518 57.6611 84.8828 57.6611C83.714 57.661 82.7666 56.7128 82.7666 55.5439V51.3496H73.1143C71.9453 51.3496 70.9971 50.4014 70.9971 49.2324C70.9971 48.0635 71.9453 47.1153 73.1143 47.1152H82.7666V34.501C82.7666 33.3411 81.8093 32.3838 80.6494 32.3838L67.0615 32.3809C65.8925 32.3809 64.9443 31.4327 64.9443 30.2637C64.9445 29.0948 65.8926 28.1475 67.0615 28.1475C71.5909 28.1475 76.12 28.1504 80.6494 28.1504ZM24.4873 19C25.1887 19 25.7578 19.5691 25.7578 20.2705V24.8086C25.7578 25.51 25.1887 26.0791 24.4873 26.0791H11.2305C10.529 26.0791 9.95996 25.51 9.95996 24.8086V20.2705C9.95996 19.5691 10.529 19 11.2305 19H24.4873Z" fill="#3B1F13"/>
<mask id="mask0_783_4043" style="mask-type:alpha" maskUnits="userSpaceOnUse" x="3" y="19" width="84" height="52">
<path d="M48.5957 28.126C54.3549 28.126 58.3615 29.8515 62.4238 34.0469C65.5463 37.1242 67.4774 41.3722 67.4775 46.0615C67.4775 50.751 65.5462 54.9997 62.4238 58.0771C59.3112 61.1447 55.0175 63.0419 50.2803 63.042C45.5428 63.042 41.2484 61.1449 38.1357 58.0771C35.0131 54.9997 33.082 50.751 33.082 46.0615C33.0821 44.5714 33.2817 43.0932 33.6699 41.6641C34.053 40.254 34.6316 38.8768 35.3965 37.5693C35.9856 36.5646 37.2785 36.2273 38.2832 36.8164C39.2877 37.4055 39.6241 38.6975 39.0352 39.7021C38.4788 40.6528 38.049 41.686 37.7539 42.7725C37.464 43.8394 37.3155 44.9451 37.3154 46.0615C37.3154 49.581 38.761 52.7645 41.0967 55.0664C43.4421 57.378 46.6887 58.8086 50.2803 58.8086C53.8718 58.8085 57.1185 57.378 59.4639 55.0664C61.7994 52.7645 63.2441 49.5809 63.2441 46.0615C63.244 42.5422 61.7995 39.3585 59.4639 37.0566C53.6092 31.3854 48.0212 32.3838 42.6846 32.3838H9.35059C8.19072 32.3838 7.2334 33.3411 7.2334 34.501V47.1162H27.3477C28.5164 47.1164 29.4637 48.0637 29.4639 49.2324C29.4639 50.4013 28.5165 51.3494 27.3477 51.3496H7.2334V63.9648C7.23348 65.1246 8.19077 66.082 9.35059 66.082H80.6494C81.8092 66.082 82.7665 65.1246 82.7666 63.9648V61.8525C82.7668 60.6838 83.7141 59.7365 84.8828 59.7363C86.0517 59.7363 86.9998 60.6837 87 61.8525V63.9648C86.9998 67.4613 84.1467 70.3154 80.6494 70.3154H9.35059C5.8536 70.3154 3.00022 67.4618 3 63.9648V34.501C3 31.0039 5.85346 28.1504 9.35059 28.1504C22.4304 28.1504 35.5176 28.126 48.5957 28.126ZM80.6494 28.1504C84.1465 28.1504 87 31.0039 87 34.501V55.5439C87 56.713 86.0518 57.6611 84.8828 57.6611C83.714 57.661 82.7666 56.7128 82.7666 55.5439V51.3496H73.1143C71.9453 51.3496 70.9971 50.4014 70.9971 49.2324C70.9971 48.0635 71.9453 47.1153 73.1143 47.1152H82.7666V34.501C82.7666 33.3411 81.8093 32.3838 80.6494 32.3838L67.0615 32.3809C65.8925 32.3809 64.9443 31.4327 64.9443 30.2637C64.9445 29.0948 65.8926 28.1475 67.0615 28.1475C71.5909 28.1475 76.12 28.1504 80.6494 28.1504ZM24.4727 19C25.1741 19 25.7422 19.5691 25.7422 20.2705V24.8086C25.7422 25.51 25.1741 26.0791 24.4727 26.0791H11.2158C10.5144 26.0791 9.94531 25.51 9.94531 24.8086V20.2705C9.94531 19.5691 10.5144 19 11.2158 19H24.4727Z" fill="#3B1F13"/>
</mask>
<g mask="url(#mask0_783_4043)">
<path d="M64.1621 25.1602H94.4072V58.7658H69.483V41.5709L64.1621 33.2815V25.1602Z" fill="url(#paint0_linear_783_4043)"/>
<rect x="0.200195" y="26.7285" width="29.3489" height="45.8156" fill="url(#paint1_linear_783_4043)"/>
<rect x="29.5479" y="26.7285" width="14.5624" height="7.50525" fill="url(#paint2_linear_783_4043)"/>
<rect x="28.875" y="65.04" width="13.5543" height="7.50525" fill="url(#paint3_linear_783_4043)"/>
</g>
<defs>
<linearGradient id="paint0_linear_783_4043" x1="64.4105" y1="27.1872" x2="88.9746" y2="56.3571" gradientUnits="userSpaceOnUse">
<stop stop-color="#9D5022"/>
<stop offset="0.866196" stop-color="#3B1F13"/>
</linearGradient>
<linearGradient id="paint1_linear_783_4043" x1="0.200195" y1="26.7285" x2="37.3817" y2="64.9183" gradientUnits="userSpaceOnUse">
<stop stop-color="#9D5022"/>
<stop offset="1" stop-color="#3B1F13"/>
</linearGradient>
<linearGradient id="paint2_linear_783_4043" x1="29.5479" y1="30.1451" x2="44.1103" y2="30.1451" gradientUnits="userSpaceOnUse">
<stop stop-color="#723A1B"/>
<stop offset="1" stop-color="#3B1F13"/>
</linearGradient>
<linearGradient id="paint3_linear_783_4043" x1="28.875" y1="65.04" x2="43.3716" y2="69.4415" gradientUnits="userSpaceOnUse">
<stop stop-color="#442314"/>
<stop offset="1" stop-color="#3B1F13"/>
</linearGradient>
</defs>
</svg>
