<svg width="16" height="16" viewBox="0 0 16 16" fill="none" xmlns="http://www.w3.org/2000/svg">
<path d="M1.93268 0.058441C1.82015 0.0887763 1.65136 0.14338 1.55759 0.176748C1.46381 0.210117 1.27939 0.304156 1.15123 0.386062C1.02307 0.467967 0.835527 0.610542 0.735501 0.704582C0.638601 0.801654 0.485438 0.983666 0.401041 1.11107C0.313519 1.24152 0.213493 1.42353 0.17911 1.51453C0.144726 1.60554 0.0915873 1.75721 0.0634552 1.84822C0.0134424 1.9999 0.0103166 2.48829 0.00406505 7.69685C-0.00531234 13.1997 -0.00218654 13.3817 0.0540778 13.6092C0.0884615 13.7396 0.1416 13.9216 0.17911 14.0127C0.213493 14.1037 0.310393 14.2826 0.394789 14.407C0.479186 14.5314 0.629224 14.7164 0.732375 14.8135C0.832401 14.9136 1.02307 15.0592 1.15123 15.1411C1.27939 15.223 1.46381 15.3171 1.55759 15.3504C1.65136 15.3838 1.83266 15.4384 1.95456 15.4718C2.17649 15.5264 2.35154 15.5294 7.99672 15.5294C13.6419 15.5294 13.817 15.5264 14.0389 15.4718C14.1608 15.4384 14.3421 15.3838 14.4359 15.3504C14.5296 15.3171 14.7141 15.223 14.8422 15.1411C14.9704 15.0592 15.161 14.9136 15.2611 14.8135C15.3642 14.7164 15.5143 14.5314 15.5987 14.407C15.6831 14.2826 15.78 14.1037 15.8143 14.0127C15.8487 13.9216 15.8987 13.77 15.9269 13.679C15.9519 13.588 15.98 13.3877 15.9925 13.2391C16.0081 12.9813 16.005 12.957 15.9269 12.8205C15.88 12.7416 15.7862 12.6415 15.7112 12.593C15.6018 12.5232 15.5486 12.5111 15.3736 12.5111C15.2048 12.5111 15.1423 12.5262 15.0423 12.5899C14.9766 12.6324 14.8891 12.7143 14.8516 12.7719C14.8016 12.8447 14.7703 12.957 14.7484 13.1481C14.7234 13.3544 14.6891 13.4727 14.6109 13.6335C14.5421 13.7669 14.4484 13.8943 14.3515 13.9823C14.2702 14.0551 14.1108 14.1583 13.9983 14.2098L13.7951 14.3008L10.4348 14.316V9.88706C11.9258 9.88706 12.029 9.87796 12.1384 9.82942C12.2072 9.79909 12.2947 9.74145 12.3322 9.70201C12.3697 9.66258 12.4197 9.58067 12.4447 9.52304C12.4697 9.4654 12.5166 9.22575 12.5448 8.99217C12.5916 8.62815 12.5916 8.54624 12.5573 8.43097C12.5323 8.3521 12.4666 8.24896 12.4041 8.18828C12.3447 8.13065 12.2384 8.06391 12.1697 8.04571C12.0853 8.01841 11.7821 8.00627 11.2382 8.00627H10.4348C10.4505 5.80697 10.4536 5.74023 10.5161 5.60979C10.5505 5.53395 10.6286 5.42171 10.688 5.35801C10.7474 5.29127 10.8725 5.2033 10.9662 5.16083C11.1288 5.08196 11.1694 5.07892 11.7477 5.06376C12.3322 5.04859 12.3635 5.04555 12.4791 4.97275C12.5479 4.93028 12.6385 4.84231 12.6823 4.7786C12.7604 4.66636 12.7636 4.63299 12.7729 4.20223C12.7823 3.84428 12.7729 3.71687 12.7354 3.62283C12.7104 3.55609 12.6479 3.46509 12.601 3.41959C12.5541 3.37408 12.4604 3.31645 12.3947 3.29218C12.3291 3.26488 12.079 3.22847 11.8008 3.20724C11.4476 3.17994 11.2569 3.17994 11.06 3.20421C10.9131 3.22241 10.6536 3.28308 10.4817 3.33768C10.2973 3.39835 10.066 3.50149 9.91909 3.5925C9.78155 3.6744 9.59401 3.80484 9.50336 3.88068C9.40958 3.95652 9.24392 4.1264 9.13451 4.25987C9.02198 4.39335 8.86882 4.62389 8.7938 4.77557C8.71566 4.92421 8.62188 5.15779 8.58437 5.29127C8.51873 5.51878 8.5156 5.60372 8.50623 6.7686L8.49685 8.00627L6.88082 8.02144C6.69327 8.14278 6.60262 8.23075 6.55886 8.29749C6.48384 8.41277 6.48071 8.43097 6.48071 8.94667C6.48071 9.46237 6.48384 9.48057 6.55886 9.59584C6.60262 9.66258 6.69327 9.75055 6.75891 9.79302L6.88082 9.87189L8.49685 9.88706V14.316L2.19837 14.3008C1.88267 14.1583 1.72325 14.0551 1.64198 13.9823C1.54196 13.8943 1.44818 13.7669 1.37629 13.6213L1.26063 13.3938V2.1364C1.40755 1.83002 1.51382 1.67531 1.58884 1.59644C1.67949 1.49936 1.81077 1.40836 1.96081 1.33859L2.19525 1.22635H13.7982C14.1827 1.40836 14.314 1.49936 14.4046 1.59644C14.4796 1.67531 14.5859 1.83002 14.639 1.93923L14.7328 2.1364L14.7641 10.2693C14.8891 10.4543 14.9798 10.5423 15.0485 10.5848C15.1454 10.6454 15.2111 10.6606 15.3736 10.6606C15.5361 10.6606 15.6018 10.6454 15.7018 10.5848C15.7675 10.5423 15.8644 10.4483 15.9112 10.3724L15.9988 10.2359C15.9988 2.31235 15.9956 2.1273 15.9394 1.90889C15.905 1.78452 15.8518 1.60554 15.8143 1.51453C15.78 1.42353 15.6831 1.24455 15.5987 1.12017C15.5143 0.9958 15.3673 0.813788 15.2704 0.716716C15.1704 0.622676 14.9829 0.474034 14.8485 0.392129C14.7172 0.30719 14.5296 0.210117 14.4359 0.176748C14.3421 0.14338 14.1608 0.0887763 14.0358 0.0554075C13.817 0.000804061 13.645 -0.00222946 7.97172 0.000804061C2.43593 0.00383758 2.12648 0.00687111 1.93268 0.058441Z" fill="#F5F5F5"/>
</svg>
